<svg width="206" height="52" viewBox="0 0 206 52" fill="none" xmlns="http://www.w3.org/2000/svg">
<rect width="206" height="52" rx="4" fill="url(#paint0_linear_2646_1532)"/>
<path d="M51.2537 26.2V30.88C50.667 31.312 50.0404 31.6293 49.3737 31.832C48.7124 32.0293 48.003 32.128 47.2457 32.128C46.3017 32.128 45.4457 31.9813 44.6777 31.688C43.915 31.3947 43.2617 30.9867 42.7177 30.464C42.179 29.9413 41.763 29.3173 41.4697 28.592C41.1764 27.8667 41.0297 27.0747 41.0297 26.216C41.0297 25.3467 41.171 24.5493 41.4537 23.824C41.7364 23.0987 42.1364 22.4747 42.6537 21.952C43.1764 21.4293 43.8084 21.024 44.5497 20.736C45.291 20.448 46.123 20.304 47.0457 20.304C47.515 20.304 47.9524 20.3413 48.3577 20.416C48.7684 20.4907 49.147 20.5947 49.4937 20.728C49.8457 20.856 50.1657 21.0133 50.4537 21.2C50.7417 21.3867 51.0057 21.592 51.2457 21.816L50.6297 22.792C50.5337 22.9467 50.4084 23.0427 50.2537 23.08C50.099 23.112 49.931 23.072 49.7497 22.96C49.5737 22.8587 49.3977 22.7573 49.2217 22.656C49.0457 22.5547 48.8484 22.4667 48.6297 22.392C48.4164 22.3173 48.1737 22.256 47.9017 22.208C47.635 22.16 47.3257 22.136 46.9737 22.136C46.403 22.136 45.8857 22.232 45.4217 22.424C44.963 22.616 44.571 22.8907 44.2457 23.248C43.9204 23.6053 43.6697 24.0347 43.4937 24.536C43.3177 25.0373 43.2297 25.5973 43.2297 26.216C43.2297 26.8773 43.323 27.4693 43.5097 27.992C43.7017 28.5093 43.9684 28.9493 44.3097 29.312C44.6564 29.6693 45.0724 29.944 45.5577 30.136C46.043 30.3227 46.5844 30.416 47.1817 30.416C47.6084 30.416 47.9897 30.3707 48.3257 30.28C48.6617 30.1893 48.9897 30.0667 49.3097 29.912V27.816H47.8537C47.715 27.816 47.6057 27.7787 47.5257 27.704C47.451 27.624 47.4137 27.528 47.4137 27.416V26.2H51.2537ZM58.7093 26.952C58.7093 26.696 58.672 26.456 58.5973 26.232C58.528 26.0027 58.4213 25.8027 58.2773 25.632C58.1333 25.4613 57.9493 25.328 57.7253 25.232C57.5066 25.1307 57.2506 25.08 56.9573 25.08C56.3866 25.08 55.936 25.2427 55.6053 25.568C55.28 25.8933 55.072 26.3547 54.9813 26.952H58.7093ZM54.9413 28.144C54.9733 28.5653 55.048 28.9307 55.1653 29.24C55.2826 29.544 55.4373 29.7973 55.6293 30C55.8213 30.1973 56.048 30.3467 56.3093 30.448C56.576 30.544 56.8693 30.592 57.1893 30.592C57.5093 30.592 57.784 30.5547 58.0133 30.48C58.248 30.4053 58.4506 30.3227 58.6213 30.232C58.7973 30.1413 58.9493 30.0587 59.0773 29.984C59.2106 29.9093 59.3386 29.872 59.4613 29.872C59.6266 29.872 59.7493 29.9333 59.8293 30.056L60.3973 30.776C60.1786 31.032 59.9333 31.248 59.6613 31.424C59.3893 31.5947 59.104 31.7333 58.8053 31.84C58.512 31.9413 58.2106 32.0133 57.9013 32.056C57.5973 32.0987 57.3013 32.12 57.0133 32.12C56.4426 32.12 55.912 32.0267 55.4213 31.84C54.9306 31.648 54.504 31.368 54.1413 31C53.7786 30.6267 53.4933 30.168 53.2853 29.624C53.0773 29.0747 52.9733 28.44 52.9733 27.72C52.9733 27.16 53.064 26.6347 53.2453 26.144C53.4266 25.648 53.6853 25.2187 54.0213 24.856C54.3626 24.488 54.776 24.1973 55.2613 23.984C55.752 23.7707 56.304 23.664 56.9173 23.664C57.4346 23.664 57.912 23.7467 58.3493 23.912C58.7866 24.0773 59.1626 24.32 59.4773 24.64C59.792 24.9547 60.0373 25.344 60.2133 25.808C60.3946 26.2667 60.4853 26.792 60.4853 27.384C60.4853 27.6827 60.4533 27.8853 60.3893 27.992C60.3253 28.0933 60.2026 28.144 60.0213 28.144H54.9413ZM65.1261 32.128C64.4114 32.128 63.8621 31.928 63.4781 31.528C63.0994 31.1227 62.9101 30.5653 62.9101 29.856V25.272H62.0701C61.9634 25.272 61.8727 25.2373 61.7981 25.168C61.7234 25.0987 61.6861 24.9947 61.6861 24.856V24.072L63.0061 23.856L63.4221 21.616C63.4487 21.5093 63.4994 21.4267 63.5741 21.368C63.6487 21.3093 63.7447 21.28 63.8621 21.28H64.8861V23.864H67.0781V25.272H64.8861V29.72C64.8861 29.976 64.9474 30.176 65.0701 30.32C65.1981 30.464 65.3714 30.536 65.5901 30.536C65.7127 30.536 65.8141 30.5227 65.8941 30.496C65.9794 30.464 66.0514 30.432 66.1101 30.4C66.1741 30.368 66.2301 30.3387 66.2781 30.312C66.3261 30.28 66.3741 30.264 66.4221 30.264C66.4807 30.264 66.5287 30.28 66.5661 30.312C66.6034 30.3387 66.6434 30.3813 66.6861 30.44L67.2781 31.4C66.9901 31.64 66.6594 31.8213 66.2861 31.944C65.9127 32.0667 65.5261 32.128 65.1261 32.128ZM79.1138 25.528C79.0551 25.6027 78.9965 25.6613 78.9378 25.704C78.8845 25.7467 78.8045 25.768 78.6978 25.768C78.5965 25.768 78.4978 25.7387 78.4018 25.68C78.3058 25.616 78.1911 25.5467 78.0578 25.472C77.9245 25.392 77.7645 25.3227 77.5778 25.264C77.3965 25.2 77.1698 25.168 76.8978 25.168C76.5511 25.168 76.2471 25.232 75.9858 25.36C75.7245 25.4827 75.5058 25.6613 75.3298 25.896C75.1591 26.1307 75.0311 26.416 74.9458 26.752C74.8605 27.0827 74.8178 27.4587 74.8178 27.88C74.8178 28.3173 74.8631 28.7067 74.9538 29.048C75.0498 29.3893 75.1858 29.6773 75.3618 29.912C75.5378 30.1413 75.7511 30.3173 76.0018 30.44C76.2525 30.5573 76.5351 30.616 76.8498 30.616C77.1645 30.616 77.4178 30.5787 77.6098 30.504C77.8071 30.424 77.9725 30.3387 78.1058 30.248C78.2391 30.152 78.3538 30.0667 78.4498 29.992C78.5511 29.912 78.6631 29.872 78.7858 29.872C78.9458 29.872 79.0658 29.9333 79.1458 30.056L79.7138 30.776C79.4951 31.032 79.2578 31.248 79.0018 31.424C78.7458 31.5947 78.4791 31.7333 78.2018 31.84C77.9298 31.9413 77.6471 32.0133 77.3538 32.056C77.0658 32.0987 76.7778 32.12 76.4898 32.12C75.9831 32.12 75.5058 32.0267 75.0578 31.84C74.6098 31.648 74.2178 31.3707 73.8818 31.008C73.5458 30.6453 73.2791 30.2027 73.0818 29.68C72.8898 29.152 72.7938 28.552 72.7938 27.88C72.7938 27.2773 72.8791 26.72 73.0498 26.208C73.2258 25.6907 73.4818 25.2453 73.8178 24.872C74.1538 24.4933 74.5698 24.1973 75.0658 23.984C75.5618 23.7707 76.1325 23.664 76.7778 23.664C77.3911 23.664 77.9271 23.7627 78.3858 23.96C78.8498 24.1573 79.2658 24.44 79.6338 24.808L79.1138 25.528ZM84.9439 23.664C85.5519 23.664 86.1039 23.7627 86.5999 23.96C87.1013 24.1573 87.5279 24.4373 87.8799 24.8C88.2373 25.1627 88.5119 25.6053 88.7039 26.128C88.8959 26.6507 88.9919 27.2347 88.9919 27.88C88.9919 28.5307 88.8959 29.1173 88.7039 29.64C88.5119 30.1627 88.2373 30.608 87.8799 30.976C87.5279 31.344 87.1013 31.6267 86.5999 31.824C86.1039 32.0213 85.5519 32.12 84.9439 32.12C84.3306 32.12 83.7733 32.0213 83.2719 31.824C82.7706 31.6267 82.3413 31.344 81.9839 30.976C81.6319 30.608 81.3573 30.1627 81.1599 29.64C80.9679 29.1173 80.8719 28.5307 80.8719 27.88C80.8719 27.2347 80.9679 26.6507 81.1599 26.128C81.3573 25.6053 81.6319 25.1627 81.9839 24.8C82.3413 24.4373 82.7706 24.1573 83.2719 23.96C83.7733 23.7627 84.3306 23.664 84.9439 23.664ZM84.9439 30.6C85.6266 30.6 86.1306 30.3707 86.4559 29.912C86.7866 29.4533 86.9519 28.7813 86.9519 27.896C86.9519 27.0107 86.7866 26.336 86.4559 25.872C86.1306 25.408 85.6266 25.176 84.9439 25.176C84.2506 25.176 83.7359 25.4107 83.3999 25.88C83.0693 26.344 82.9039 27.016 82.9039 27.896C82.9039 28.776 83.0693 29.448 83.3999 29.912C83.7359 30.3707 84.2506 30.6 84.9439 30.6ZM92.8474 24.8C93.0128 24.6347 93.1861 24.4827 93.3674 24.344C93.5541 24.2 93.7488 24.08 93.9514 23.984C94.1594 23.8827 94.3808 23.8053 94.6154 23.752C94.8501 23.6933 95.1061 23.664 95.3834 23.664C95.8314 23.664 96.2288 23.7413 96.5754 23.896C96.9221 24.0453 97.2101 24.2587 97.4394 24.536C97.6741 24.808 97.8501 25.136 97.9674 25.52C98.0901 25.8987 98.1514 26.3173 98.1514 26.776V32H96.1754V26.776C96.1754 26.2747 96.0608 25.888 95.8314 25.616C95.6021 25.3387 95.2528 25.2 94.7834 25.2C94.4421 25.2 94.1221 25.2773 93.8234 25.432C93.5248 25.5867 93.2421 25.7973 92.9754 26.064V32H90.9994V23.792H92.2074C92.4634 23.792 92.6314 23.912 92.7114 24.152L92.8474 24.8ZM105.539 25.392C105.485 25.4773 105.429 25.5387 105.371 25.576C105.312 25.608 105.237 25.624 105.147 25.624C105.051 25.624 104.947 25.5973 104.835 25.544C104.728 25.4907 104.603 25.432 104.459 25.368C104.315 25.2987 104.149 25.2373 103.963 25.184C103.781 25.1307 103.565 25.104 103.315 25.104C102.925 25.104 102.619 25.1867 102.395 25.352C102.176 25.5173 102.067 25.7333 102.067 26C102.067 26.176 102.123 26.3253 102.235 26.448C102.352 26.5653 102.504 26.6693 102.691 26.76C102.883 26.8507 103.099 26.9333 103.339 27.008C103.579 27.0773 103.821 27.1547 104.067 27.24C104.317 27.3253 104.563 27.424 104.803 27.536C105.043 27.6427 105.256 27.7813 105.443 27.952C105.635 28.1173 105.787 28.3173 105.899 28.552C106.016 28.7867 106.075 29.0693 106.075 29.4C106.075 29.7947 106.003 30.16 105.859 30.496C105.72 30.8267 105.512 31.1147 105.235 31.36C104.957 31.6 104.613 31.7893 104.203 31.928C103.797 32.0613 103.328 32.128 102.795 32.128C102.512 32.128 102.235 32.1013 101.963 32.048C101.696 32 101.437 31.9307 101.187 31.84C100.941 31.7493 100.712 31.6427 100.499 31.52C100.291 31.3973 100.107 31.264 99.9467 31.12L100.403 30.368C100.461 30.2773 100.531 30.208 100.611 30.16C100.691 30.112 100.792 30.088 100.915 30.088C101.037 30.088 101.152 30.1227 101.259 30.192C101.371 30.2613 101.499 30.336 101.643 30.416C101.787 30.496 101.955 30.5707 102.147 30.64C102.344 30.7093 102.592 30.744 102.891 30.744C103.125 30.744 103.325 30.7173 103.491 30.664C103.661 30.6053 103.8 30.5307 103.907 30.44C104.019 30.3493 104.099 30.2453 104.147 30.128C104.2 30.0053 104.227 29.88 104.227 29.752C104.227 29.56 104.168 29.4027 104.051 29.28C103.939 29.1573 103.787 29.0507 103.595 28.96C103.408 28.8693 103.192 28.7893 102.947 28.72C102.707 28.6453 102.459 28.5653 102.203 28.48C101.952 28.3947 101.704 28.296 101.459 28.184C101.219 28.0667 101.003 27.92 100.811 27.744C100.624 27.568 100.472 27.352 100.355 27.096C100.243 26.84 100.187 26.5307 100.187 26.168C100.187 25.832 100.253 25.512 100.387 25.208C100.52 24.904 100.715 24.64 100.971 24.416C101.232 24.1867 101.555 24.0053 101.939 23.872C102.328 23.7333 102.776 23.664 103.283 23.664C103.848 23.664 104.363 23.7573 104.827 23.944C105.291 24.1307 105.677 24.376 105.987 24.68L105.539 25.392ZM115.134 23.792V32H113.926C113.665 32 113.499 31.88 113.43 31.64L113.294 30.984C112.958 31.3253 112.587 31.6027 112.182 31.816C111.777 32.024 111.299 32.128 110.75 32.128C110.302 32.128 109.905 32.0533 109.558 31.904C109.217 31.7493 108.929 31.5333 108.694 31.256C108.459 30.9787 108.281 30.6507 108.158 30.272C108.041 29.888 107.982 29.4667 107.982 29.008V23.792H109.958V29.008C109.958 29.5093 110.073 29.8987 110.302 30.176C110.537 30.448 110.886 30.584 111.35 30.584C111.691 30.584 112.011 30.5093 112.31 30.36C112.609 30.2053 112.891 29.9947 113.158 29.728V23.792H115.134ZM119.593 20.112V32H117.617V20.112H119.593ZM124.798 32.128C124.083 32.128 123.534 31.928 123.15 31.528C122.771 31.1227 122.582 30.5653 122.582 29.856V25.272H121.742C121.635 25.272 121.545 25.2373 121.47 25.168C121.395 25.0987 121.358 24.9947 121.358 24.856V24.072L122.678 23.856L123.094 21.616C123.121 21.5093 123.171 21.4267 123.246 21.368C123.321 21.3093 123.417 21.28 123.534 21.28H124.558V23.864H126.75V25.272H124.558V29.72C124.558 29.976 124.619 30.176 124.742 30.32C124.87 30.464 125.043 30.536 125.262 30.536C125.385 30.536 125.486 30.5227 125.566 30.496C125.651 30.464 125.723 30.432 125.782 30.4C125.846 30.368 125.902 30.3387 125.95 30.312C125.998 30.28 126.046 30.264 126.094 30.264C126.153 30.264 126.201 30.28 126.238 30.312C126.275 30.3387 126.315 30.3813 126.358 30.44L126.95 31.4C126.662 31.64 126.331 31.8213 125.958 31.944C125.585 32.0667 125.198 32.128 124.798 32.128ZM132.851 28.496C132.28 28.5227 131.8 28.5733 131.411 28.648C131.022 28.7173 130.71 28.808 130.475 28.92C130.24 29.032 130.072 29.1627 129.971 29.312C129.87 29.4613 129.819 29.624 129.819 29.8C129.819 30.1467 129.92 30.3947 130.123 30.544C130.331 30.6933 130.6 30.768 130.931 30.768C131.336 30.768 131.686 30.696 131.979 30.552C132.278 30.4027 132.568 30.1787 132.851 29.88V28.496ZM128.323 24.936C129.267 24.072 130.403 23.64 131.731 23.64C132.211 23.64 132.64 23.72 133.019 23.88C133.398 24.0347 133.718 24.2533 133.979 24.536C134.24 24.8133 134.438 25.1467 134.571 25.536C134.71 25.9253 134.779 26.352 134.779 26.816V32H133.883C133.696 32 133.552 31.9733 133.451 31.92C133.35 31.8613 133.27 31.7467 133.211 31.576L133.035 30.984C132.827 31.1707 132.624 31.336 132.427 31.48C132.23 31.6187 132.024 31.736 131.811 31.832C131.598 31.928 131.368 32 131.123 32.048C130.883 32.1013 130.616 32.128 130.323 32.128C129.976 32.128 129.656 32.0827 129.363 31.992C129.07 31.896 128.816 31.7547 128.603 31.568C128.39 31.3813 128.224 31.1493 128.107 30.872C127.99 30.5947 127.931 30.272 127.931 29.904C127.931 29.696 127.966 29.4907 128.035 29.288C128.104 29.08 128.216 28.8827 128.371 28.696C128.531 28.5093 128.736 28.3333 128.987 28.168C129.238 28.0027 129.544 27.8587 129.907 27.736C130.275 27.6133 130.702 27.5147 131.187 27.44C131.672 27.36 132.227 27.312 132.851 27.296V26.816C132.851 26.2667 132.734 25.8613 132.499 25.6C132.264 25.3333 131.926 25.2 131.483 25.2C131.163 25.2 130.896 25.2373 130.683 25.312C130.475 25.3867 130.291 25.472 130.131 25.568C129.971 25.6587 129.824 25.7413 129.691 25.816C129.563 25.8907 129.419 25.928 129.259 25.928C129.12 25.928 129.003 25.8933 128.907 25.824C128.811 25.7493 128.734 25.664 128.675 25.568L128.323 24.936ZM145.311 32H143.335V25.272H139.527V29.72C139.527 29.976 139.588 30.176 139.711 30.32C139.839 30.464 140.012 30.536 140.231 30.536C140.353 30.536 140.455 30.5227 140.535 30.496C140.62 30.464 140.692 30.432 140.751 30.4C140.815 30.368 140.871 30.3387 140.919 30.312C140.967 30.28 141.015 30.264 141.063 30.264C141.121 30.264 141.169 30.28 141.207 30.312C141.244 30.3387 141.284 30.3813 141.327 30.44L141.919 31.4C141.631 31.64 141.3 31.8213 140.927 31.944C140.553 32.0667 140.167 32.128 139.767 32.128C139.052 32.128 138.503 31.928 138.119 31.528C137.74 31.1227 137.551 30.5653 137.551 29.856V25.272H136.711C136.604 25.272 136.513 25.2373 136.439 25.168C136.364 25.0987 136.327 24.9947 136.327 24.856V24.072L137.647 23.848L138.063 21.616C138.089 21.5093 138.14 21.4267 138.215 21.368C138.289 21.3093 138.385 21.28 138.503 21.28H139.527V23.864H145.311V32ZM145.655 21.368C145.655 21.5387 145.62 21.7013 145.551 21.856C145.481 22.0053 145.388 22.136 145.271 22.248C145.159 22.36 145.023 22.4507 144.863 22.52C144.708 22.584 144.543 22.616 144.367 22.616C144.196 22.616 144.036 22.584 143.887 22.52C143.737 22.4507 143.607 22.36 143.495 22.248C143.383 22.136 143.292 22.0053 143.223 21.856C143.159 21.7013 143.127 21.5387 143.127 21.368C143.127 21.192 143.159 21.0293 143.223 20.88C143.292 20.7253 143.383 20.592 143.495 20.48C143.607 20.3627 143.737 20.272 143.887 20.208C144.036 20.1387 144.196 20.104 144.367 20.104C144.543 20.104 144.708 20.1387 144.863 20.208C145.023 20.272 145.159 20.3627 145.271 20.48C145.388 20.592 145.481 20.7253 145.551 20.88C145.62 21.0293 145.655 21.192 145.655 21.368ZM151.46 23.664C152.068 23.664 152.62 23.7627 153.116 23.96C153.617 24.1573 154.044 24.4373 154.396 24.8C154.753 25.1627 155.028 25.6053 155.22 26.128C155.412 26.6507 155.508 27.2347 155.508 27.88C155.508 28.5307 155.412 29.1173 155.22 29.64C155.028 30.1627 154.753 30.608 154.396 30.976C154.044 31.344 153.617 31.6267 153.116 31.824C152.62 32.0213 152.068 32.12 151.46 32.12C150.846 32.12 150.289 32.0213 149.788 31.824C149.286 31.6267 148.857 31.344 148.5 30.976C148.148 30.608 147.873 30.1627 147.676 29.64C147.484 29.1173 147.388 28.5307 147.388 27.88C147.388 27.2347 147.484 26.6507 147.676 26.128C147.873 25.6053 148.148 25.1627 148.5 24.8C148.857 24.4373 149.286 24.1573 149.788 23.96C150.289 23.7627 150.846 23.664 151.46 23.664ZM151.46 30.6C152.142 30.6 152.646 30.3707 152.972 29.912C153.302 29.4533 153.468 28.7813 153.468 27.896C153.468 27.0107 153.302 26.336 152.972 25.872C152.646 25.408 152.142 25.176 151.46 25.176C150.766 25.176 150.252 25.4107 149.916 25.88C149.585 26.344 149.42 27.016 149.42 27.896C149.42 28.776 149.585 29.448 149.916 29.912C150.252 30.3707 150.766 30.6 151.46 30.6ZM159.363 24.8C159.528 24.6347 159.702 24.4827 159.883 24.344C160.07 24.2 160.264 24.08 160.467 23.984C160.675 23.8827 160.896 23.8053 161.131 23.752C161.366 23.6933 161.622 23.664 161.899 23.664C162.347 23.664 162.744 23.7413 163.091 23.896C163.438 24.0453 163.726 24.2587 163.955 24.536C164.19 24.808 164.366 25.136 164.483 25.52C164.606 25.8987 164.667 26.3173 164.667 26.776V32H162.691V26.776C162.691 26.2747 162.576 25.888 162.347 25.616C162.118 25.3387 161.768 25.2 161.299 25.2C160.958 25.2 160.638 25.2773 160.339 25.432C160.04 25.5867 159.758 25.7973 159.491 26.064V32H157.515V23.792H158.723C158.979 23.792 159.147 23.912 159.227 24.152L159.363 24.8Z" fill="white"/>
<defs>
<linearGradient id="paint0_linear_2646_1532" x1="-7.6741e-06" y1="52" x2="42.2651" y2="-61.1566" gradientUnits="userSpaceOnUse">
<stop stop-color="#FF3F3A"/>
<stop offset="1" stop-color="#F75E05"/>
</linearGradient>
</defs>
</svg>
